<svg width="17" height="22" viewBox="0 0 17 22" fill="none" xmlns="http://www.w3.org/2000/svg">
<path fill-rule="evenodd" clip-rule="evenodd" d="M16.5833 20.6297C16.5833 21.2941 16.0645 21.8334 15.4226 21.8334C14.7807 21.8334 14.2619 21.2941 14.2619 20.6297C14.2619 17.311 11.6584 14.6111 8.45831 14.6111C5.25822 14.6111 2.65474 17.311 2.65474 20.6297C2.65474 21.2941 2.1359 21.8334 1.49403 21.8334C0.852152 21.8334 0.333313 21.2941 0.333313 20.6297C0.333313 15.9834 3.97912 12.2037 8.45831 12.2037C12.9375 12.2037 16.5833 15.9834 16.5833 20.6297ZM8.45831 2.57409C9.73858 2.57409 10.7797 3.65382 10.7797 4.9815C10.7797 6.30919 9.73858 7.38891 8.45831 7.38891C7.17804 7.38891 6.13688 6.30919 6.13688 4.9815C6.13688 3.65382 7.17804 2.57409 8.45831 2.57409ZM8.45831 9.79632C11.0188 9.79632 13.1012 7.63687 13.1012 4.9815C13.1012 2.32613 11.0188 0.166687 8.45831 0.166687C5.89778 0.166687 3.81546 2.32613 3.81546 4.9815C3.81546 7.63687 5.89778 9.79632 8.45831 9.79632Z" fill="#D2D2D2"/>
</svg>
